<?xml version="1.0" encoding="UTF-8" standalone="no"?>
<!DOCTYPE svg PUBLIC "-//W3C//DTD SVG 1.1//EN"
 "http://www.w3.org/Graphics/SVG/1.1/DTD/svg11.dtd">
<!-- Generated by graphviz version 2.40.1 (20161225.0304)
 -->
<!-- Title: %0 Pages: 1 -->
<svg width="721pt" height="664pt"
 viewBox="0.00 0.00 721.09 664.23" xmlns="http://www.w3.org/2000/svg" xmlns:xlink="http://www.w3.org/1999/xlink">
<g id="graph0" class="graph" transform="scale(1 1) rotate(0) translate(4 660.2333)">
<title>%0</title>
<polygon fill="#ffffff" stroke="transparent" points="-4,4 -4,-660.2333 717.0943,-660.2333 717.0943,4 -4,4"/>
<!-- start -->
<g id="node1" class="node">
<title>start</title>
<ellipse fill="#000000" stroke="#000000" cx="9" cy="-247.4333" rx="9" ry="9"/>
</g>
<!-- ready -->
<g id="node2" class="node">
<title>ready</title>
<ellipse fill="none" stroke="#000000" cx="109.0441" cy="-247.4333" rx="32.4634" ry="18"/>
<text text-anchor="middle" x="109.0441" y="-243.2333" font-family="Times,serif" font-size="14.00" fill="#000000">ready</text>
</g>
<!-- start&#45;&gt;ready -->
<g id="edge1" class="edge">
<title>start&#45;&gt;ready</title>
<path fill="none" stroke="#000000" d="M18.2326,-247.4333C29.1504,-247.4333 48.0897,-247.4333 65.8567,-247.4333"/>
<polygon fill="#000000" stroke="#000000" points="66.1127,-250.9334 76.1127,-247.4333 66.1126,-243.9334 66.1127,-250.9334"/>
<text text-anchor="middle" x="47.2812" y="-251.6333" font-family="Times,serif" font-size="14.00" fill="#000000">:init</text>
</g>
<!-- submitting -->
<g id="node4" class="node">
<title>submitting</title>
<ellipse fill="none" stroke="#000000" cx="294.5546" cy="-373.4333" rx="52.206" ry="18"/>
<text text-anchor="middle" x="294.5546" y="-369.2333" font-family="Times,serif" font-size="14.00" fill="#000000">submitting</text>
</g>
<!-- ready&#45;&gt;submitting -->
<g id="edge4" class="edge">
<title>ready&#45;&gt;submitting</title>
<path fill="none" stroke="#000000" d="M118.6679,-264.8282C127.6141,-279.6647 142.1536,-300.7121 159.5258,-314.4333 184.6472,-334.2752 217.4717,-348.8163 244.4667,-358.4979"/>
<polygon fill="#000000" stroke="#000000" points="243.5286,-361.877 254.1233,-361.8457 245.8215,-355.2631 243.5286,-361.877"/>
<text text-anchor="middle" x="180.5293" y="-343.6333" font-family="Times,serif" font-size="14.00" fill="#000000">:submit</text>
</g>
<!-- shortpassword -->
<g id="node3" class="node">
<title>shortpassword</title>
<ellipse fill="none" stroke="#000000" cx="635.5436" cy="-564.4333" rx="66.6344" ry="18"/>
<text text-anchor="middle" x="635.5436" y="-560.2333" font-family="Times,serif" font-size="14.00" fill="#000000">shortpassword</text>
</g>
<!-- shortpassword&#45;&gt;ready -->
<g id="edge2" class="edge">
<title>shortpassword&#45;&gt;ready</title>
<path fill="none" stroke="#000000" d="M600.9128,-579.8949C513.3575,-616.3592 281.4645,-696.1515 159.5258,-578.4333 137.8015,-557.461 118.0863,-352.4805 111.4301,-276.0066"/>
<polygon fill="#000000" stroke="#000000" points="114.8873,-275.3569 110.5441,-265.6932 107.913,-275.9561 114.8873,-275.3569"/>
<text text-anchor="middle" x="294.5546" y="-643.6333" font-family="Times,serif" font-size="14.00" fill="#000000">:change&#45;password</text>
</g>
<!-- shortpassword&#45;&gt;ready -->
<g id="edge3" class="edge">
<title>shortpassword&#45;&gt;ready</title>
<path fill="none" stroke="#000000" d="M581.508,-575.1933C496.1199,-589.0062 328.5172,-602.8053 219.5328,-525.4333 136.3822,-466.4017 115.7854,-334.3879 110.7014,-276.0683"/>
<polygon fill="#000000" stroke="#000000" points="114.1639,-275.4486 109.8991,-265.75 107.1849,-275.9912 114.1639,-275.4486"/>
<text text-anchor="middle" x="294.5546" y="-583.6333" font-family="Times,serif" font-size="14.00" fill="#000000">:change&#45;confirm&#45;password</text>
</g>
<!-- submitting&#45;&gt;shortpassword -->
<g id="edge7" class="edge">
<title>submitting&#45;&gt;shortpassword</title>
<path fill="none" stroke="#000000" d="M307.1637,-390.965C323.5115,-412.5703 353.9408,-449.1487 387.5764,-471.4333 420.3208,-493.1275 519.8133,-527.2902 582.3701,-547.6143"/>
<polygon fill="#000000" stroke="#000000" points="581.4853,-551.0065 592.0771,-550.7533 583.6392,-544.3461 581.4853,-551.0065"/>
<text text-anchor="middle" x="463.7847" y="-535.6333" font-family="Times,serif" font-size="14.00" fill="#000000">:submit&#45;short&#45;password</text>
</g>
<!-- missinglastname -->
<g id="node5" class="node">
<title>missinglastname</title>
<ellipse fill="none" stroke="#000000" cx="635.5436" cy="-502.4333" rx="75.3157" ry="18"/>
<text text-anchor="middle" x="635.5436" y="-498.2333" font-family="Times,serif" font-size="14.00" fill="#000000">missinglastname</text>
</g>
<!-- submitting&#45;&gt;missinglastname -->
<g id="edge10" class="edge">
<title>submitting&#45;&gt;missinglastname</title>
<path fill="none" stroke="#000000" d="M317.5152,-389.8311C335.6869,-402.0296 362.1533,-418.1162 387.5764,-427.4333 452.1852,-451.1113 476.0508,-429.21 539.993,-454.6333 548.8819,-458.1676 549.6326,-461.7849 557.993,-466.4333 568.0269,-472.0122 579.0766,-477.5061 589.6124,-482.4572"/>
<polygon fill="#000000" stroke="#000000" points="588.1545,-485.6391 598.7004,-486.6568 591.091,-479.2847 588.1545,-485.6391"/>
<text text-anchor="middle" x="463.7847" y="-458.6333" font-family="Times,serif" font-size="14.00" fill="#000000">:submit&#45;missing&#45;last&#45;name</text>
</g>
<!-- missingfirstname -->
<g id="node6" class="node">
<title>missingfirstname</title>
<ellipse fill="none" stroke="#000000" cx="635.5436" cy="-316.4333" rx="77.6013" ry="18"/>
<text text-anchor="middle" x="635.5436" y="-312.2333" font-family="Times,serif" font-size="14.00" fill="#000000">missingfirstname</text>
</g>
<!-- submitting&#45;&gt;missingfirstname -->
<g id="edge9" class="edge">
<title>submitting&#45;&gt;missingfirstname</title>
<path fill="none" stroke="#000000" d="M346.2226,-370.394C407.0643,-366.5355 504.3505,-359.4133 539.993,-351.4333 556.5539,-347.7255 574.1403,-341.8721 589.6507,-336.0054"/>
<polygon fill="#000000" stroke="#000000" points="590.9575,-339.2527 599.0122,-332.3699 588.4234,-332.7274 590.9575,-339.2527"/>
<text text-anchor="middle" x="463.7847" y="-370.6333" font-family="Times,serif" font-size="14.00" fill="#000000">:submit&#45;missing&#45;first&#45;name</text>
</g>
<!-- matchpassword -->
<g id="node7" class="node">
<title>matchpassword</title>
<ellipse fill="none" stroke="#000000" cx="635.5436" cy="-235.4333" rx="71.2075" ry="18"/>
<text text-anchor="middle" x="635.5436" y="-231.2333" font-family="Times,serif" font-size="14.00" fill="#000000">matchpassword</text>
</g>
<!-- submitting&#45;&gt;matchpassword -->
<g id="edge8" class="edge">
<title>submitting&#45;&gt;matchpassword</title>
<path fill="none" stroke="#000000" d="M323.7701,-358.4598C341.8362,-349.588 365.6813,-338.5665 387.5764,-330.6333 453.5512,-306.7288 475.069,-316.0599 539.993,-289.4333 561.0106,-280.8136 583.175,-268.511 600.8599,-257.8252"/>
<polygon fill="#000000" stroke="#000000" points="602.9816,-260.6295 609.6699,-252.4126 599.3172,-254.6652 602.9816,-260.6295"/>
<text text-anchor="middle" x="463.7847" y="-334.6333" font-family="Times,serif" font-size="14.00" fill="#000000">:submit&#45;match&#45;password</text>
</g>
<!-- error -->
<g id="node8" class="node">
<title>error</title>
<ellipse fill="none" stroke="#000000" cx="635.5436" cy="-88.4333" rx="29.5936" ry="18"/>
<text text-anchor="middle" x="635.5436" y="-84.2333" font-family="Times,serif" font-size="14.00" fill="#000000">error</text>
</g>
<!-- submitting&#45;&gt;error -->
<g id="edge11" class="edge">
<title>submitting&#45;&gt;error</title>
<path fill="none" stroke="#000000" d="M324.7526,-358.508C340.0548,-349.6025 357.8323,-336.9906 369.5764,-321.4333 384.5139,-301.6456 372.8606,-288.5866 387.5764,-268.6333 395.5331,-257.8447 544.6216,-152.3764 607.7152,-107.9763"/>
<polygon fill="#000000" stroke="#000000" points="609.8577,-110.7485 616.0237,-102.1327 605.8306,-105.0228 609.8577,-110.7485"/>
<text text-anchor="middle" x="463.7847" y="-273.6333" font-family="Times,serif" font-size="14.00" fill="#000000">:submit&#45;error</text>
</g>
<!-- success -->
<g id="node9" class="node">
<title>success</title>
<ellipse fill="none" stroke="#000000" cx="635.5436" cy="-413.4333" rx="39.9845" ry="39.9845"/>
<ellipse fill="none" stroke="#000000" cx="635.5436" cy="-413.4333" rx="43.9838" ry="43.9838"/>
<text text-anchor="middle" x="635.5436" y="-409.2333" font-family="Times,serif" font-size="14.00" fill="#000000">success</text>
</g>
<!-- submitting&#45;&gt;success -->
<g id="edge12" class="edge">
<title>submitting&#45;&gt;success</title>
<path fill="none" stroke="#000000" d="M339.3467,-383.0656C354.5947,-386.087 371.7764,-389.2097 387.5764,-391.4333 454.0408,-400.7871 531.1208,-406.8884 581.4767,-410.2411"/>
<polygon fill="#000000" stroke="#000000" points="581.2847,-413.7359 591.4915,-410.8951 581.7409,-406.7508 581.2847,-413.7359"/>
<text text-anchor="middle" x="463.7847" y="-410.6333" font-family="Times,serif" font-size="14.00" fill="#000000">:submit&#45;success</text>
</g>
<!-- missinglastname&#45;&gt;ready -->
<g id="edge5" class="edge">
<title>missinglastname&#45;&gt;ready</title>
<path fill="none" stroke="#000000" d="M579.5728,-514.5876C528.4383,-523.3417 451.3173,-530.5847 387.5764,-511.4333 283.5495,-480.1778 186.9534,-392.898 159.5258,-360.4333 138.2925,-335.3005 124.3991,-299.8051 116.6619,-275.3356"/>
<polygon fill="#000000" stroke="#000000" points="119.9595,-274.1482 113.7193,-265.5861 113.2581,-276.1709 119.9595,-274.1482"/>
<text text-anchor="middle" x="294.5546" y="-508.6333" font-family="Times,serif" font-size="14.00" fill="#000000">:change&#45;last&#45;name</text>
</g>
<!-- missingfirstname&#45;&gt;ready -->
<g id="edge6" class="edge">
<title>missingfirstname&#45;&gt;ready</title>
<path fill="none" stroke="#000000" d="M561.687,-310.8546C467.7063,-303.0449 300.6282,-286.777 159.5258,-260.4333 155.6822,-259.7158 151.6983,-258.8701 147.7307,-257.9601"/>
<polygon fill="#000000" stroke="#000000" points="148.5343,-254.5536 137.9914,-255.6016 146.8867,-261.357 148.5343,-254.5536"/>
<text text-anchor="middle" x="294.5546" y="-295.6333" font-family="Times,serif" font-size="14.00" fill="#000000">:change&#45;first&#45;name</text>
</g>
<!-- matchpassword&#45;&gt;ready -->
<g id="edge17" class="edge">
<title>matchpassword&#45;&gt;ready</title>
<path fill="none" stroke="#000000" d="M580.9402,-223.8982C501.0253,-208.8224 347.7745,-186.7706 219.5328,-208.6333 193.2896,-213.1073 164.9855,-223.1559 143.595,-231.9056"/>
<polygon fill="#000000" stroke="#000000" points="142.154,-228.7146 134.2857,-235.8097 144.8612,-235.1699 142.154,-228.7146"/>
<text text-anchor="middle" x="294.5546" y="-213.6333" font-family="Times,serif" font-size="14.00" fill="#000000">:change&#45;password</text>
</g>
<!-- matchpassword&#45;&gt;ready -->
<g id="edge18" class="edge">
<title>matchpassword&#45;&gt;ready</title>
<path fill="none" stroke="#000000" d="M564.5814,-237.0507C453.5468,-239.5814 242.1079,-244.4005 151.7334,-246.4604"/>
<polygon fill="#000000" stroke="#000000" points="151.4993,-242.9647 141.5817,-246.6917 151.6588,-249.9629 151.4993,-242.9647"/>
<text text-anchor="middle" x="294.5546" y="-249.6333" font-family="Times,serif" font-size="14.00" fill="#000000">:change&#45;confirm&#45;password</text>
</g>
<!-- error&#45;&gt;ready -->
<g id="edge13" class="edge">
<title>error&#45;&gt;ready</title>
<path fill="none" stroke="#000000" d="M608.4994,-80.581C541.7964,-62.3629 364.3217,-20.8927 219.5328,-49.6333 191.2273,-55.252 178.8003,-52.9564 159.5258,-74.4333 140.2685,-95.8911 122.5742,-176.1197 114.1736,-219.375"/>
<polygon fill="#000000" stroke="#000000" points="110.7224,-218.7884 112.2895,-229.2667 117.5988,-220.0982 110.7224,-218.7884"/>
<text text-anchor="middle" x="294.5546" y="-54.6333" font-family="Times,serif" font-size="14.00" fill="#000000">:change&#45;password</text>
</g>
<!-- error&#45;&gt;ready -->
<g id="edge14" class="edge">
<title>error&#45;&gt;ready</title>
<path fill="none" stroke="#000000" d="M615.2593,-74.9511C596.5476,-63.229 567.572,-46.8434 539.993,-38.4333 403.5254,3.1817 358.4322,12.9572 219.5328,-19.6333 190.5427,-26.4354 178.2438,-26.2746 159.5258,-49.4333 138.4315,-75.532 120.9445,-171.1957 113.254,-219.3492"/>
<polygon fill="#000000" stroke="#000000" points="109.768,-218.988 111.6798,-229.4089 116.6838,-220.0702 109.768,-218.988"/>
<text text-anchor="middle" x="294.5546" y="-24.6333" font-family="Times,serif" font-size="14.00" fill="#000000">:change&#45;confirm&#45;password</text>
</g>
<!-- error&#45;&gt;ready -->
<g id="edge15" class="edge">
<title>error&#45;&gt;ready</title>
<path fill="none" stroke="#000000" d="M606.3728,-92.313C537.5471,-102.0038 360.2467,-130.1154 219.5328,-179.6333 191.4439,-189.518 184.8634,-193.7906 159.5258,-209.4333 151.6092,-214.3208 143.3974,-220.1406 135.9548,-225.7387"/>
<polygon fill="#000000" stroke="#000000" points="133.4267,-223.2676 127.6349,-232.1392 137.695,-228.8157 133.4267,-223.2676"/>
<text text-anchor="middle" x="294.5546" y="-184.6333" font-family="Times,serif" font-size="14.00" fill="#000000">:change&#45;first&#45;name</text>
</g>
<!-- error&#45;&gt;ready -->
<g id="edge16" class="edge">
<title>error&#45;&gt;ready</title>
<path fill="none" stroke="#000000" d="M606.8726,-83.2266C536.5079,-71.9026 351.4279,-51.0215 219.5328,-116.6333 174.1882,-139.1902 140.2614,-189.6574 122.6389,-220.8938"/>
<polygon fill="#000000" stroke="#000000" points="119.4305,-219.4659 117.6988,-229.9182 125.5707,-222.8272 119.4305,-219.4659"/>
<text text-anchor="middle" x="294.5546" y="-121.6333" font-family="Times,serif" font-size="14.00" fill="#000000">:change&#45;last&#45;name</text>
</g>
</g>
</svg>
